<mxfile host="app.diagrams.net" modified="2023-08-19T10:34:16.523Z" agent="Mozilla/5.0 (Windows NT 10.0; Win64; x64) AppleWebKit/537.36 (KHTML, like Gecko) Chrome/116.0.0.0 Safari/537.36" version="21.6.8" etag="Pczd43irn5hKBSiJ1A0d" type="github">
  <diagram name="Сторінка-1" id="NRl2Z3fUt0NP_X38VLgz">
    <mxGraphModel>
      <root>
        <mxCell id="0" />
        <mxCell id="1" parent="0" />
      </root>
    </mxGraphModel>
  </diagram>
</mxfile>
